# This file uses centimeters as units for non-parametric coordinates.

mtllib Box Open 001.mtl
g default
v -0.500000 0.051955 0.717502
v 0.500000 0.051955 0.717502
v -0.500000 1.051955 0.717502
v 0.500000 1.051955 0.717502
v -0.500000 1.051955 -0.717502
v 0.500000 1.051955 -0.717502
v -0.500000 0.051955 -0.717502
v 0.500000 0.051955 -0.717502
v -0.502108 1.052550 -0.717696
v 0.504337 1.052550 -0.717696
v -0.502108 1.479816 -1.292227
v 0.504337 1.479816 -1.292227
v -0.502108 0.649105 1.310744
v 0.504337 0.649105 1.310744
v -0.502108 1.050294 0.717711
v 0.504337 1.050294 0.717711
v -0.502209 1.051540 0.707292
v -0.502209 1.051540 -0.707292
v -1.183867 1.270595 0.707292
v -1.183867 1.270595 -0.707292
v 1.180285 0.833539 0.707292
v 1.180285 0.833539 -0.707292
v 0.498627 1.052593 0.707292
v 0.498627 1.052593 -0.707292
vt 0.375000 0.000000
vt 0.625000 0.000000
vt 0.375000 0.250000
vt 0.625000 0.250000
vt 0.375000 0.500000
vt 0.625000 0.500000
vt 0.375000 0.750000
vt 0.625000 0.750000
vt 0.375000 1.000000
vt 0.625000 1.000000
vt 0.875000 0.000000
vt 0.875000 0.250000
vt 0.125000 0.000000
vt 0.125000 0.250000
vt 0.000000 0.000000
vt 1.000000 0.000000
vt 1.000000 1.000000
vt 0.000000 1.000000
vt 0.000000 0.000000
vt 1.000000 0.000000
vt 1.000000 1.000000
vt 0.000000 1.000000
vt 0.000000 0.000000
vt 1.000000 0.000000
vt 1.000000 1.000000
vt 0.000000 1.000000
vt 0.000000 0.000000
vt 1.000000 0.000000
vt 1.000000 1.000000
vt 0.000000 1.000000
vn 0.000000 0.000000 1.000000
vn 0.000000 0.000000 1.000000
vn 0.000000 0.000000 1.000000
vn 0.000000 0.000000 1.000000
vn 0.000000 0.000000 -1.000000
vn 0.000000 0.000000 -1.000000
vn 0.000000 0.000000 -1.000000
vn 0.000000 0.000000 -1.000000
vn 0.000000 -1.000000 0.000000
vn 0.000000 -1.000000 0.000000
vn 0.000000 -1.000000 0.000000
vn 0.000000 -1.000000 0.000000
vn 1.000000 0.000000 0.000000
vn 1.000000 0.000000 0.000000
vn 1.000000 0.000000 0.000000
vn 1.000000 0.000000 0.000000
vn -1.000000 0.000000 0.000000
vn -1.000000 0.000000 0.000000
vn -1.000000 0.000000 0.000000
vn -1.000000 0.000000 0.000000
vn 0.000000 0.802428 0.596749
vn 0.000000 0.802428 0.596749
vn 0.000000 0.802428 0.596749
vn 0.000000 0.802428 0.596749
vn 0.000000 0.828270 0.560329
vn 0.000000 0.828270 0.560329
vn 0.000000 0.828270 0.560329
vn 0.000000 0.828270 0.560329
vn 0.305947 0.952049 0.000000
vn 0.305947 0.952049 0.000000
vn 0.305947 0.952049 0.000000
vn 0.305947 0.952049 0.000000
vn 0.305947 0.952049 0.000000
vn 0.305947 0.952049 0.000000
vn 0.305947 0.952049 0.000000
vn 0.305947 0.952049 0.000000
s off
g pCube2
usemtl initialShadingGroup
f 1/1/1 2/2/2 4/4/3 3/3/4
f 5/5/5 6/6/6 8/8/7 7/7/8
f 7/7/9 8/8/10 2/10/11 1/9/12
f 2/2/13 8/11/14 6/12/15 4/4/16
f 7/13/17 1/1/18 3/3/19 5/14/20
f 9/15/21 10/16/22 12/17/23 11/18/24
f 13/19/25 14/20/26 16/21/27 15/22/28
f 17/23/29 18/24/30 20/25/31 19/26/32
f 21/27/33 22/28/34 24/29/35 23/30/36
