# This file uses centimeters as units for non-parametric coordinates.

mtllib Rock_001.mtl
g default
v -1.066122 1.194319 -0.136382
v 1.399585 0.832342 -0.628725
v 0.428281 1.213180 0.472771
v -0.255670 1.461040 -1.039296
v -0.801917 0.346100 0.246184
v 0.012834 0.921974 -1.243036
v -0.950495 1.532248 -0.451786
v -0.073300 1.683919 0.331805
v 0.498571 1.560067 -0.844780
v 0.900848 1.169526 -0.915977
v -0.728579 0.387897 -0.763042
v -0.219359 0.587081 -1.063917
v 1.011934 0.759571 -0.998356
v 0.464406 0.170334 -1.046010
v 0.673936 0.795228 -1.177799
v 0.428255 1.736201 -0.568766
v 0.287940 1.608497 0.141555
v 0.133760 1.194056 0.702980
v 1.383121 0.637779 0.198030
v 1.185815 1.352245 -0.467627
v -0.813036 1.349935 0.159958
v 0.632695 -0.176893 -0.434065
v 0.974882 0.404108 -0.881805
v 0.995968 -0.002702 -0.373872
v 1.286189 0.351840 -0.316847
v 0.516898 0.026943 0.152304
v 0.715628 0.637091 0.507200
v 0.371056 0.158722 0.399677
v -0.072118 0.279724 0.603251
v -0.844168 1.664407 -0.138243
v -0.144750 0.331287 -0.952709
v -0.745645 1.215351 0.506294
v 0.225561 1.766313 -0.208170
v 0.036418 1.553326 -0.669984
v -0.961385 0.623292 0.134248
v 0.915209 1.662317 -0.179576
v 0.071581 0.011796 -0.517220
v 0.064355 0.019734 -0.153961
v 0.211490 1.560105 -0.900022
v -0.863184 0.745151 -0.784748
v 1.327485 0.941874 0.164991
v -0.648678 1.026903 0.582346
v -0.262819 0.381704 0.639684
v -1.056155 1.218156 -0.461188
v -0.393918 1.690626 0.356254
v -0.287198 1.434671 0.590035
v -0.409621 1.771535 -0.574214
v 0.317333 0.568684 -1.238543
v 0.055512 1.328675 -1.157446
v -0.842654 1.231496 -0.853127
v -0.457410 0.206938 -0.642914
v -0.019831 0.730265 0.864317
v 1.152339 1.322556 0.020982
v 0.901129 0.269753 0.332417
v -0.508300 0.145771 0.033127
v 0.965341 0.032730 -0.072315
vn -0.320609 -0.947103 0.014321
vn -0.320609 -0.947103 0.014321
vn -0.320609 -0.947103 0.014321
vn 0.966246 -0.254399 -0.040626
vn 0.966246 -0.254399 -0.040626
vn 0.966246 -0.254399 -0.040626
vn -0.557353 -0.263347 0.787404
vn -0.557353 -0.263347 0.787405
vn -0.557353 -0.263347 0.787404
vn 0.623989 0.312964 -0.716025
vn 0.623989 0.312964 -0.716025
vn 0.623989 0.312964 -0.716025
vn -0.896936 0.423990 0.125451
vn -0.896936 0.423989 0.125451
vn -0.896937 0.423990 0.125451
vn 0.462920 0.785521 -0.410685
vn 0.462920 0.785521 -0.410685
vn 0.462920 0.785521 -0.410685
vn 0.441560 0.803128 -0.400013
vn 0.441560 0.803128 -0.400013
vn 0.441560 0.803128 -0.400013
vn 0.452899 0.661554 0.597686
vn 0.452899 0.661554 0.597686
vn 0.452899 0.661554 0.597686
vn -0.736922 -0.158593 0.657111
vn -0.736922 -0.158593 0.657111
vn -0.736922 -0.158593 0.657111
vn 0.310822 0.834794 -0.454432
vn 0.310822 0.834794 -0.454432
vn 0.310822 0.834794 -0.454432
vn -0.262063 -0.774712 -0.575452
vn -0.262063 -0.774712 -0.575452
vn -0.262063 -0.774712 -0.575452
vn -0.599252 -0.796893 -0.076549
vn -0.599252 -0.796893 -0.076549
vn -0.599252 -0.796893 -0.076549
vn -0.947741 0.318990 -0.005672
vn -0.947741 0.318990 -0.005672
vn -0.947741 0.318990 -0.005672
vn -0.435889 0.872691 -0.220025
vn -0.435889 0.872691 -0.220025
vn -0.435889 0.872691 -0.220025
vn 0.299653 0.166261 -0.939449
vn 0.299653 0.166261 -0.939449
vn 0.299653 0.166261 -0.939449
vn -0.660821 0.480958 0.576190
vn -0.660821 0.480958 0.576190
vn -0.660821 0.480958 0.576190
vn -0.792795 0.376220 0.479516
vn -0.792795 0.376220 0.479516
vn -0.792795 0.376220 0.479516
vn 0.069457 0.688405 0.721993
vn 0.069457 0.688405 0.721993
vn 0.069457 0.688405 0.721993
vn 0.439597 0.653061 0.616657
vn 0.439597 0.653061 0.616657
vn 0.439597 0.653061 0.616657
vn -0.978627 -0.200713 -0.044760
vn -0.978627 -0.200713 -0.044760
vn -0.978627 -0.200713 -0.044760
vn -0.297438 0.246280 0.922430
vn -0.297438 0.246280 0.922430
vn -0.297438 0.246280 0.922430
vn 0.472148 0.294871 -0.830739
vn 0.472148 0.294871 -0.830739
vn 0.472148 0.294871 -0.830739
vn -0.349153 -0.816917 0.459063
vn -0.349153 -0.816917 0.459063
vn -0.349153 -0.816917 0.459063
vn -0.265164 -0.857513 0.440863
vn -0.265164 -0.857513 0.440863
vn -0.265164 -0.857513 0.440863
vn -0.096886 -0.490562 0.866004
vn -0.096886 -0.490562 0.866004
vn -0.096886 -0.490562 0.866004
vn 0.790631 0.605500 0.090960
vn 0.790631 0.605500 0.090960
vn 0.790631 0.605500 0.090960
vn 0.688410 -0.289774 -0.664923
vn 0.688410 -0.289774 -0.664923
vn 0.688410 -0.289774 -0.664923
vn 0.395949 -0.401876 -0.825664
vn 0.395949 -0.401876 -0.825664
vn 0.395949 -0.401876 -0.825664
vn 0.114111 0.085764 -0.989759
vn 0.114111 0.085764 -0.989759
vn 0.114111 0.085764 -0.989759
vn 0.288793 -0.403198 0.868349
vn 0.288793 -0.403198 0.868349
vn 0.288793 -0.403198 0.868349
vn 0.325462 -0.502059 0.801256
vn 0.325462 -0.502059 0.801256
vn 0.325462 -0.502059 0.801256
vn 0.334236 0.641086 0.690866
vn 0.334236 0.641086 0.690866
vn 0.334236 0.641086 0.690866
vn 0.290480 0.673022 0.680193
vn 0.290480 0.673022 0.680193
vn 0.290480 0.673022 0.680193
vn 0.178050 0.489269 -0.853765
vn 0.178050 0.489269 -0.853765
vn 0.178050 0.489269 -0.853765
vn -0.314797 -0.454167 -0.833448
vn -0.314797 -0.454167 -0.833448
vn -0.314797 -0.454167 -0.833448
vn -0.456789 -0.155305 -0.875913
vn -0.456789 -0.155305 -0.875913
vn -0.456789 -0.155305 -0.875913
vn -0.185620 -0.129121 -0.974101
vn -0.185620 -0.129121 -0.974101
vn -0.185620 -0.129121 -0.974101
vn -0.877326 -0.030303 -0.478937
vn -0.877326 -0.030303 -0.478937
vn -0.877326 -0.030303 -0.478937
vn -0.842763 0.296945 -0.448970
vn -0.842763 0.296945 -0.448970
vn -0.842763 0.296945 -0.448970
vn 0.382125 -0.283955 -0.879403
vn 0.382125 -0.283955 -0.879404
vn 0.382125 -0.283955 -0.879404
vn 0.420328 -0.321967 -0.848329
vn 0.420328 -0.321967 -0.848329
vn 0.420328 -0.321967 -0.848329
vn 0.488094 -0.694668 -0.528394
vn 0.488094 -0.694668 -0.528394
vn 0.488094 -0.694668 -0.528394
vn 0.510832 0.632356 -0.582389
vn 0.510832 0.632356 -0.582389
vn 0.510832 0.632356 -0.582389
vn -0.010049 0.922884 -0.384948
vn -0.010049 0.922884 -0.384948
vn -0.010049 0.922884 -0.384948
vn 0.224374 0.902634 0.367300
vn 0.224374 0.902634 0.367300
vn 0.224374 0.902634 0.367300
vn 0.121451 0.912687 0.390194
vn 0.121451 0.912687 0.390194
vn 0.121451 0.912687 0.390194
vn -0.154146 0.984106 0.088174
vn -0.154146 0.984106 0.088174
vn -0.154146 0.984106 0.088174
vn 0.378833 0.242338 0.893173
vn 0.378833 0.242338 0.893173
vn 0.378833 0.242338 0.893173
vn -0.054748 0.344188 0.937303
vn -0.054748 0.344188 0.937303
vn -0.054748 0.344188 0.937303
vn 0.413815 0.172820 0.893807
vn 0.413815 0.172820 0.893807
vn 0.413815 0.172820 0.893807
vn 0.410706 -0.214276 0.886232
vn 0.410706 -0.214276 0.886232
vn 0.410706 -0.214276 0.886232
vn 0.568311 0.328552 0.754371
vn 0.568311 0.328552 0.754371
vn 0.568311 0.328552 0.754371
vn 0.447440 0.158031 0.880241
vn 0.447440 0.158031 0.880241
vn 0.447440 0.158031 0.880241
vn -0.948783 0.184629 0.256364
vn -0.948783 0.184629 0.256364
vn -0.948783 0.184629 0.256364
vn -0.787991 0.139657 0.599639
vn -0.787991 0.139657 0.599639
vn -0.787991 0.139657 0.599639
vn 0.655202 0.456026 -0.602288
vn 0.655202 0.456026 -0.602288
vn 0.655202 0.456026 -0.602288
vn 0.891866 0.443645 0.088062
vn 0.891866 0.443645 0.088062
vn 0.891866 0.443645 0.088062
vn 0.927926 0.371296 0.033054
vn 0.927926 0.371296 0.033054
vn 0.927926 0.371296 0.033054
vn 0.751577 -0.474677 -0.458054
vn 0.751577 -0.474677 -0.458054
vn 0.751577 -0.474677 -0.458054
vn 0.980455 0.186265 0.063359
vn 0.980455 0.186265 0.063359
vn 0.980455 0.186265 0.063359
vn -0.181750 -0.939404 0.290666
vn -0.181750 -0.939404 0.290666
vn -0.181750 -0.939404 0.290666
vn -0.183966 -0.833882 -0.520382
vn -0.183966 -0.833882 -0.520382
vn -0.183966 -0.833882 -0.520382
vn 0.762972 -0.615333 0.198088
vn 0.762972 -0.615333 0.198088
vn 0.762973 -0.615333 0.198088
vn 0.725722 -0.521976 -0.448183
vn 0.725722 -0.521976 -0.448183
vn 0.725722 -0.521976 -0.448183
vn 0.752748 -0.640587 0.151716
vn 0.752748 -0.640587 0.151716
vn 0.752748 -0.640587 0.151716
vn 0.429179 -0.696206 -0.575416
vn 0.429179 -0.696206 -0.575416
vn 0.429179 -0.696206 -0.575416
vn 0.407705 -0.901156 0.147288
vn 0.407705 -0.901157 0.147288
vn 0.407705 -0.901156 0.147288
vn 0.189938 -0.915124 0.355628
vn 0.189938 -0.915124 0.355628
vn 0.189938 -0.915124 0.355628
vn 0.614887 -0.634079 0.468890
vn 0.614887 -0.634079 0.468890
vn 0.614887 -0.634079 0.468890
vn -0.229325 -0.872288 -0.431883
vn -0.229325 -0.872288 -0.431883
vn -0.229325 -0.872288 -0.431883
vn 0.237284 -0.792370 0.562001
vn 0.237284 -0.792370 0.562001
vn 0.237284 -0.792370 0.562001
vn 0.269992 -0.811577 0.518119
vn 0.269992 -0.811577 0.518119
vn 0.269992 -0.811577 0.518119
vn 0.188559 -0.342683 0.920334
vn 0.188559 -0.342683 0.920334
vn 0.188559 -0.342683 0.920334
vn -0.108484 -0.946063 0.305280
vn -0.108484 -0.946063 0.305280
vn -0.108484 -0.946063 0.305280
vn -0.327060 0.072158 -0.942245
vn -0.327060 0.072158 -0.942245
vn -0.327060 0.072158 -0.942245
vn -0.449333 0.667156 -0.594141
vn -0.449333 0.667156 -0.594141
vn -0.449333 0.667156 -0.594141
vn -0.431641 0.662367 -0.612337
vn -0.431641 0.662367 -0.612337
vn -0.431641 0.662367 -0.612337
vn 0.149061 0.988827 0.001215
vn 0.149061 0.988827 0.001215
vn 0.149061 0.988827 0.001215
vn 0.410371 0.481718 0.774302
vn 0.410371 0.481718 0.774302
vn 0.410371 0.481718 0.774302
vn -0.455250 -0.153447 -0.877041
vn -0.455250 -0.153447 -0.877041
vn -0.455250 -0.153447 -0.877041
vn -0.249567 -0.446393 -0.859331
vn -0.249567 -0.446393 -0.859331
vn -0.249567 -0.446393 -0.859331
vn -0.292058 -0.834539 -0.467169
vn -0.292058 -0.834539 -0.467169
vn -0.292058 -0.834539 -0.467169
vn -0.946586 -0.290625 -0.139685
vn -0.946586 -0.290625 -0.139685
vn -0.946586 -0.290625 -0.139685
vn -0.223847 -0.908781 0.352150
vn -0.223847 -0.908781 0.352150
vn -0.223847 -0.908781 0.352150
vn -0.118869 -0.945481 0.303208
vn -0.118869 -0.945481 0.303208
vn -0.118869 -0.945481 0.303208
vn -0.246563 -0.963343 -0.105722
vn -0.246563 -0.963343 -0.105722
vn -0.246563 -0.963343 -0.105722
vn -0.515412 -0.849106 -0.115624
vn -0.515412 -0.849106 -0.115624
vn -0.515412 -0.849106 -0.115624
vn -0.373481 0.891043 -0.257981
vn -0.373481 0.891043 -0.257981
vn -0.373481 0.891043 -0.257981
vn -0.333476 0.905317 -0.263049
vn -0.333476 0.905317 -0.263049
vn -0.333476 0.905317 -0.263049
vn 0.099618 0.850106 -0.517103
vn 0.099618 0.850106 -0.517103
vn 0.099618 0.850106 -0.517103
vn 0.292994 0.816932 -0.496767
vn 0.292994 0.816932 -0.496767
vn 0.292994 0.816932 -0.496767
vn 0.163377 0.638754 0.751865
vn 0.163377 0.638754 0.751865
vn 0.163377 0.638754 0.751865
vn -0.348895 -0.937064 0.013539
vn -0.348895 -0.937064 0.013539
vn -0.348895 -0.937064 0.013539
vn -0.684128 0.624984 0.375984
vn -0.684128 0.624984 0.375984
vn -0.684128 0.624984 0.375984
vn 0.322190 0.598613 -0.733387
vn 0.322190 0.598613 -0.733387
vn 0.322190 0.598613 -0.733387
vn 0.177048 0.350060 -0.919843
vn 0.177048 0.350060 -0.919843
vn 0.177048 0.350060 -0.919843
vn 0.049696 0.727579 -0.684222
vn 0.049696 0.727578 -0.684222
vn 0.049696 0.727579 -0.684222
vn -0.334480 0.227558 -0.914517
vn -0.334480 0.227558 -0.914517
vn -0.334480 0.227558 -0.914517
vn -0.930938 -0.355762 -0.082383
vn -0.930939 -0.355762 -0.082383
vn -0.930938 -0.355762 -0.082383
vn -0.826356 -0.539970 -0.159901
vn -0.826356 -0.539970 -0.159901
vn -0.826356 -0.539970 -0.159901
vn -0.481469 -0.212371 0.850345
vn -0.481469 -0.212371 0.850345
vn -0.481469 -0.212371 0.850345
vn -0.390045 0.527019 0.755060
vn -0.390045 0.527019 0.755061
vn -0.390045 0.527019 0.755060
vn -0.280838 0.231394 0.931444
vn -0.280838 0.231394 0.931444
vn -0.280838 0.231394 0.931444
vn -0.754936 -0.128963 0.642994
vn -0.754936 -0.128963 0.642994
vn -0.754936 -0.128963 0.642994
vn -0.283387 -0.500120 -0.818274
vn -0.283387 -0.500120 -0.818274
vn -0.283387 -0.500120 -0.818274
vn -0.305971 -0.275306 -0.911366
vn -0.305971 -0.275306 -0.911366
vn -0.305971 -0.275306 -0.911366
vn -0.176173 0.978718 -0.105234
vn -0.176173 0.978718 -0.105234
vn -0.176173 0.978718 -0.105234
vn -0.042102 0.995296 0.087256
vn -0.042102 0.995296 0.087256
vn -0.042102 0.995296 0.087256
s off
g pPlatonic1
usemtl initialShadingGroup
f 37//1 22//2 38//3
f 19//4 25//5 2//6
f 43//7 42//8 5//9
f 13//10 10//11 2//12
f 7//13 1//14 30//15
f 20//16 9//17 36//18
f 9//19 16//20 36//21
f 3//22 17//23 8//24
f 35//25 5//26 42//27
f 4//28 47//29 34//30
f 51//31 11//32 31//33
f 5//34 11//35 55//36
f 7//37 44//38 1//39
f 7//40 30//41 47//42
f 6//43 49//44 10//45
f 30//46 21//47 45//48
f 30//49 1//50 21//51
f 46//52 8//53 45//54
f 3//55 8//56 18//57
f 44//58 35//59 1//60
f 52//61 46//62 42//63
f 10//64 13//65 15//66
f 29//67 43//68 55//69
f 55//70 43//71 5//72
f 29//73 52//74 43//75
f 20//76 36//77 53//78
f 2//79 23//80 13//81
f 13//82 48//83 15//84
f 48//85 6//86 15//87
f 28//88 27//89 29//90
f 27//91 52//92 29//93
f 3//94 53//95 36//96
f 3//97 36//98 17//99
f 15//100 6//101 10//102
f 11//103 12//104 31//105
f 11//106 50//107 12//108
f 11//109 40//110 50//111
f 40//112 44//113 50//114
f 44//115 7//116 50//117
f 13//118 14//119 48//120
f 13//121 23//122 14//123
f 14//124 23//125 22//126
f 20//127 10//128 9//129
f 45//130 8//131 17//132
f 45//133 17//134 33//135
f 17//136 36//137 33//138
f 47//139 30//140 45//141
f 3//142 27//143 41//144
f 52//145 18//146 46//147
f 27//148 19//149 41//150
f 19//151 27//152 54//153
f 3//154 18//155 27//156
f 18//157 52//158 27//159
f 32//160 21//161 35//162
f 1//163 35//164 21//165
f 10//166 20//167 2//168
f 53//169 41//170 20//171
f 41//172 2//173 20//174
f 25//175 23//176 2//177
f 41//178 19//179 2//180
f 22//181 26//182 38//183
f 51//184 31//185 37//186
f 56//187 25//188 19//189
f 25//190 24//191 23//192
f 24//193 25//194 56//195
f 23//196 24//197 22//198
f 24//199 56//200 22//201
f 22//202 56//203 26//204
f 54//205 56//206 19//207
f 22//208 37//209 14//210
f 28//211 26//212 54//213
f 54//214 26//215 56//216
f 27//217 28//218 54//219
f 38//220 29//221 55//222
f 50//223 4//224 49//225
f 4//226 50//227 47//228
f 47//229 50//230 7//231
f 16//232 33//233 36//234
f 53//235 3//236 41//237
f 50//238 6//239 12//240
f 12//241 14//242 31//243
f 31//244 14//245 37//246
f 44//247 40//248 35//249
f 28//250 38//251 26//252
f 28//253 29//254 38//255
f 51//256 38//257 55//258
f 51//259 55//260 11//261
f 33//262 39//263 34//264
f 16//265 39//266 33//267
f 9//268 39//269 16//270
f 33//271 34//272 47//273
f 18//274 8//275 46//276
f 37//277 38//278 51//279
f 21//280 32//281 45//282
f 49//283 39//284 10//285
f 10//286 39//287 9//288
f 49//289 4//290 39//291
f 50//292 49//293 6//294
f 5//295 40//296 11//297
f 5//298 35//299 40//300
f 52//301 42//302 43//303
f 46//304 45//305 32//306
f 42//307 46//308 32//309
f 42//310 32//311 35//312
f 48//313 14//314 12//315
f 12//316 6//317 48//318
f 39//319 4//320 34//321
f 45//322 33//323 47//324
