# This file uses centimeters as units for non-parametric coordinates.

mtllib Tree_001.mtl
g default
v 0.224705 0.041468 -0.328813
v -0.154976 0.041468 -0.328813
v -0.344816 0.041468 -0.000000
v -0.154976 0.041468 0.328813
v 0.224704 0.041468 0.328813
v 0.414545 0.041468 0.000000
v 0.145843 0.474481 -0.197241
v -0.076114 0.525540 -0.197241
v -0.187093 0.551069 -0.000000
v -0.076114 0.525540 0.197241
v 0.145843 0.474481 0.197241
v 0.256822 0.448951 -0.000000
v 0.034864 0.041468 0.000000
v 0.192286 0.822148 -0.140972
v 0.031806 0.849419 -0.140972
v 0.112045 0.835783 -0.000000
v -0.048434 0.863054 -0.000000
v 0.031806 0.849419 0.140972
v 0.192285 0.822148 0.140972
v 0.272525 0.808513 -0.000000
v 0.843881 0.739865 -0.587785
v 0.343881 0.739865 -0.951057
v -0.274153 0.739865 -0.951057
v -0.774153 0.739865 -0.587785
v -0.965136 0.739865 0.000000
v -0.774153 0.739865 0.587785
v -0.274153 0.739865 0.951057
v 0.343881 0.739865 0.951057
v 0.843881 0.739865 0.587785
v 1.034864 0.739865 0.000000
v 0.295203 1.655326 -0.189147
v 0.134305 1.655326 -0.306047
v -0.064576 1.655326 -0.306047
v -0.225475 1.655326 -0.189147
v -0.286931 1.655326 -0.000000
v -0.225475 1.655326 0.189147
v -0.064576 1.655326 0.306047
v 0.134305 1.655326 0.306047
v 0.295203 1.655326 0.189147
v 0.356660 1.655326 -0.000000
v 0.034864 0.739865 0.000000
v 0.674231 1.655326 -0.464527
v 0.279081 1.655326 -0.751621
v -0.209352 1.655326 -0.751621
v -0.604503 1.655326 -0.464527
v -0.755433 1.655326 0.000000
v -0.604503 1.655326 0.464527
v -0.209352 1.655326 0.751621
v 0.279081 1.655326 0.751621
v 0.674231 1.655326 0.464527
v 0.825162 1.655326 -0.000000
v 0.231476 2.772420 -0.142846
v 0.109963 2.772420 -0.231130
v -0.040235 2.772420 -0.231130
v -0.161747 2.772420 -0.142846
v -0.208159 2.772420 -0.000000
v -0.161747 2.772420 0.142846
v -0.040235 2.772420 0.231130
v 0.109963 2.772420 0.231130
v 0.231476 2.772420 0.142846
v 0.277887 2.772420 -0.000000
v 0.497465 2.772420 -0.336099
v 0.211562 2.772420 -0.543819
v -0.141833 2.772420 -0.543819
v -0.427736 2.772420 -0.336099
v -0.536936 2.772420 0.000000
v -0.427736 2.772420 0.336099
v -0.141833 2.772420 0.543819
v 0.211562 2.772420 0.543819
v 0.497465 2.772420 0.336099
v 0.606665 2.772420 -0.000000
v 0.034864 4.104618 -0.000000
vt 0.578125 0.020934
vt 0.421875 0.020934
vt 0.343750 0.156250
vt 0.421875 0.291566
vt 0.578125 0.291566
vt 0.656250 0.156250
vt 0.375000 0.312500
vt 0.416667 0.312500
vt 0.458333 0.312500
vt 0.500000 0.312500
vt 0.541667 0.312500
vt 0.583333 0.312500
vt 0.625000 0.312500
vt 0.375000 0.688440
vt 0.416667 0.688440
vt 0.458333 0.688440
vt 0.500000 0.688440
vt 0.541667 0.688440
vt 0.583333 0.688440
vt 0.625000 0.688440
vt 0.578125 0.708434
vt 0.421875 0.708434
vt 0.343750 0.843750
vt 0.421875 0.979066
vt 0.578125 0.979066
vt 0.656250 0.843750
vt 0.500000 0.150000
vt 0.500000 0.837500
vt 0.578125 0.979066
vt 0.421875 0.979066
vt 0.343750 0.843750
vt 0.421875 0.708434
vt 0.578125 0.708434
vt 0.656250 0.843750
vt 0.375000 0.312500
vt 0.400000 0.312500
vt 0.400000 0.688440
vt 0.375000 0.688440
vt 0.425000 0.312500
vt 0.425000 0.688440
vt 0.450000 0.312500
vt 0.450000 0.688440
vt 0.475000 0.312500
vt 0.475000 0.688440
vt 0.500000 0.312500
vt 0.500000 0.688440
vt 0.525000 0.312500
vt 0.525000 0.688440
vt 0.550000 0.312500
vt 0.550000 0.688440
vt 0.575000 0.312500
vt 0.575000 0.688440
vt 0.600000 0.312500
vt 0.600000 0.688440
vt 0.625000 0.312500
vt 0.625000 0.688440
vt 0.548284 0.007647
vt 0.626409 0.064409
vt 0.500000 0.150000
vt 0.451716 0.007647
vt 0.373591 0.064409
vt 0.343750 0.156250
vt 0.373591 0.248091
vt 0.451716 0.304853
vt 0.548284 0.304853
vt 0.626409 0.248091
vt 0.656250 0.156250
vt 0.626409 0.935591
vt 0.548284 0.992353
vt 0.548284 0.992353
vt 0.626409 0.935591
vt 0.451716 0.992353
vt 0.451716 0.992353
vt 0.373591 0.935591
vt 0.373591 0.935591
vt 0.343750 0.843750
vt 0.343750 0.843750
vt 0.373591 0.751909
vt 0.373591 0.751909
vt 0.451716 0.695147
vt 0.451716 0.695147
vt 0.548284 0.695147
vt 0.548284 0.695147
vt 0.626409 0.751909
vt 0.626409 0.751909
vt 0.656250 0.843750
vt 0.656250 0.843750
vt 0.548284 0.992353
vt 0.626409 0.935591
vt 0.451716 0.992353
vt 0.373591 0.935591
vt 0.343750 0.843750
vt 0.373591 0.751909
vt 0.451716 0.695147
vt 0.548284 0.695147
vt 0.626409 0.751909
vt 0.656250 0.843750
vt 0.548284 0.992353
vt 0.626409 0.935591
vt 0.451716 0.992353
vt 0.373591 0.935591
vt 0.343750 0.843750
vt 0.373591 0.751909
vt 0.451716 0.695147
vt 0.548284 0.695147
vt 0.626409 0.751909
vt 0.656250 0.843750
vt 0.500000 0.843182
vn 0.023401 0.275730 -0.960950
vn 0.023401 0.275730 -0.960950
vn 0.026281 0.238750 -0.970725
vn 0.025798 0.245017 -0.969175
vn -0.832029 0.262785 -0.488541
vn -0.832029 0.262785 -0.488541
vn -0.822811 0.288321 -0.489747
vn -0.823659 0.286050 -0.489654
vn -0.832029 0.262785 0.488541
vn -0.832029 0.262785 0.488540
vn -0.823659 0.286049 0.489654
vn -0.822812 0.288321 0.489747
vn 0.023400 0.275730 0.960950
vn 0.023400 0.275730 0.960950
vn 0.025797 0.245017 0.969175
vn 0.026281 0.238750 0.970725
vn 0.832624 0.306572 0.461250
vn 0.832624 0.306572 0.461250
vn 0.853727 0.208518 0.477148
vn 0.855275 0.199089 0.478403
vn 0.832624 0.306572 -0.461250
vn 0.832624 0.306572 -0.461250
vn 0.855275 0.199089 -0.478402
vn 0.853727 0.208518 -0.477148
vn 0.000000 -1.000000 -0.000000
vn 0.000000 -1.000000 0.000000
vn 0.000000 -1.000000 0.000000
vn 0.000000 -1.000000 0.000000
vn 0.000000 -1.000000 0.000000
vn 0.000000 -1.000000 0.000000
vn 0.000000 -1.000000 0.000000
vn 0.167531 0.985867 -0.000000
vn 0.167531 0.985867 -0.000000
vn 0.167531 0.985867 -0.000000
vn 0.167531 0.985867 -0.000000
vn 0.167531 0.985867 -0.000000
vn 0.167531 0.985867 0.000000
vn 0.167531 0.985867 0.000000
vn 0.032352 0.157952 -0.986917
vn 0.032352 0.157952 -0.986917
vn -0.796598 0.352376 -0.491185
vn -0.796598 0.352376 -0.491185
vn -0.796598 0.352376 0.491185
vn -0.796598 0.352376 0.491185
vn 0.032351 0.157952 0.986917
vn 0.032351 0.157952 0.986917
vn 0.868074 -0.036891 0.495063
vn 0.868074 -0.036891 0.495063
vn 0.868074 -0.036891 -0.495062
vn 0.868074 -0.036891 -0.495062
vn 0.480498 0.575969 -0.661348
vn 0.480498 0.575969 -0.661348
vn 0.480498 0.575969 -0.661348
vn 0.480498 0.575969 -0.661348
vn -0.000000 0.575969 -0.817472
vn -0.000000 0.575969 -0.817472
vn -0.000000 0.575969 -0.817472
vn -0.000000 0.575969 -0.817472
vn -0.480498 0.575969 -0.661348
vn -0.480498 0.575969 -0.661348
vn -0.480498 0.575969 -0.661348
vn -0.480498 0.575969 -0.661348
vn -0.777462 0.575970 -0.252611
vn -0.777462 0.575969 -0.252611
vn -0.777462 0.575970 -0.252611
vn -0.777462 0.575970 -0.252611
vn -0.777462 0.575969 0.252611
vn -0.777462 0.575969 0.252611
vn -0.777462 0.575970 0.252611
vn -0.777462 0.575970 0.252611
vn -0.480498 0.575969 0.661348
vn -0.480498 0.575969 0.661348
vn -0.480498 0.575969 0.661348
vn -0.480498 0.575969 0.661348
vn 0.000000 0.575969 0.817472
vn 0.000000 0.575969 0.817472
vn 0.000000 0.575969 0.817472
vn 0.000000 0.575969 0.817472
vn 0.480498 0.575969 0.661348
vn 0.480498 0.575969 0.661348
vn 0.480498 0.575969 0.661348
vn 0.480498 0.575969 0.661348
vn 0.777462 0.575969 0.252611
vn 0.777462 0.575969 0.252611
vn 0.777462 0.575969 0.252611
vn 0.777462 0.575969 0.252611
vn 0.777462 0.575970 -0.252611
vn 0.777462 0.575970 -0.252611
vn 0.777462 0.575970 -0.252611
vn 0.777462 0.575970 -0.252611
vn 0.000000 -1.000000 0.000000
vn 0.000000 -1.000000 0.000000
vn 0.000000 -1.000000 0.000000
vn 0.000000 -1.000000 0.000000
vn 0.000000 -1.000000 0.000000
vn 0.000000 -1.000000 0.000000
vn 0.000000 -1.000000 0.000000
vn 0.000000 -1.000000 0.000000
vn 0.000000 -1.000000 -0.000000
vn 0.000000 -1.000000 0.000000
vn 0.000000 -1.000000 0.000000
vn 0.000000 -1.000000 0.000000
vn 0.000000 -1.000000 0.000000
vn 0.000000 -1.000000 0.000000
vn 0.000000 -1.000000 0.000000
vn 0.000000 -1.000000 0.000000
vn 0.000000 -1.000000 0.000000
vn 0.000000 -1.000000 0.000000
vn 0.000000 -1.000000 0.000000
vn 0.000000 -1.000000 0.000000
vn 0.000000 -1.000000 0.000000
vn 0.000000 -1.000000 0.000000
vn 0.000000 -1.000000 0.000000
vn 0.000000 -1.000000 0.000000
vn 0.000000 -1.000000 0.000000
vn 0.000000 -1.000000 0.000000
vn 0.000000 -1.000000 0.000000
vn 0.000000 -1.000000 0.000000
vn 0.000000 -1.000000 0.000000
vn 0.000000 -1.000000 0.000000
vn 0.000000 -1.000000 0.000000
vn 0.000000 -1.000000 -0.000000
vn 0.000000 -1.000000 -0.000000
vn 0.000000 -1.000000 -0.000000
vn 0.000000 -1.000000 -0.000000
vn 0.000000 -1.000000 -0.000000
vn 0.000000 -1.000000 -0.000000
vn 0.000000 -1.000000 -0.000000
vn 0.000000 -1.000000 -0.000000
vn 0.000000 -1.000000 -0.000000
vn 0.000000 -1.000000 -0.000000
vn 0.000000 -1.000000 -0.000000
vn 0.000000 -1.000000 -0.000000
vn 0.000000 -1.000000 0.000000
vn 0.000000 -1.000000 0.000000
vn 0.000000 -1.000000 0.000000
vn 0.000000 -1.000000 0.000000
vn 0.000000 -1.000000 0.000000
vn 0.000000 -1.000000 0.000000
vn 0.000000 -1.000000 0.000000
vn 0.000000 -1.000000 0.000000
vn 0.532791 0.422339 -0.733324
vn 0.532791 0.422339 -0.733324
vn 0.532791 0.422339 -0.733324
vn 0.532791 0.422339 -0.733324
vn 0.000000 0.422339 -0.906438
vn 0.000000 0.422339 -0.906438
vn 0.000000 0.422339 -0.906438
vn 0.000000 0.422339 -0.906438
vn -0.532791 0.422339 -0.733324
vn -0.532791 0.422339 -0.733324
vn -0.532791 0.422339 -0.733324
vn -0.532791 0.422339 -0.733324
vn -0.862076 0.422338 -0.280098
vn -0.862076 0.422338 -0.280098
vn -0.862076 0.422338 -0.280098
vn -0.862076 0.422338 -0.280098
vn -0.862076 0.422338 0.280098
vn -0.862076 0.422338 0.280098
vn -0.862076 0.422338 0.280098
vn -0.862076 0.422338 0.280098
vn -0.532791 0.422339 0.733324
vn -0.532791 0.422339 0.733324
vn -0.532791 0.422339 0.733324
vn -0.532791 0.422339 0.733324
vn 0.000000 0.422339 0.906438
vn 0.000000 0.422339 0.906438
vn 0.000000 0.422339 0.906438
vn 0.000000 0.422339 0.906438
vn 0.532791 0.422339 0.733324
vn 0.532791 0.422339 0.733324
vn 0.532791 0.422339 0.733324
vn 0.532791 0.422339 0.733324
vn 0.862076 0.422338 0.280098
vn 0.862076 0.422338 0.280098
vn 0.862076 0.422338 0.280098
vn 0.862076 0.422338 0.280098
vn 0.862076 0.422338 -0.280098
vn 0.862076 0.422338 -0.280098
vn 0.862076 0.422338 -0.280098
vn 0.862076 0.422338 -0.280098
vn 0.000000 -1.000000 -0.000001
vn 0.000000 -1.000000 -0.000001
vn 0.000000 -1.000000 -0.000001
vn 0.000000 -1.000000 -0.000001
vn 0.000000 -1.000000 0.000000
vn 0.000000 -1.000000 0.000000
vn 0.000000 -1.000000 0.000000
vn 0.000000 -1.000000 0.000000
vn 0.000000 -1.000000 0.000002
vn 0.000000 -1.000000 0.000002
vn 0.000000 -1.000000 0.000002
vn 0.000000 -1.000000 0.000002
vn 0.000000 -1.000000 0.000001
vn 0.000000 -1.000000 0.000001
vn 0.000000 -1.000000 0.000001
vn 0.000000 -1.000000 0.000001
vn 0.000000 -1.000000 0.000000
vn 0.000000 -1.000000 0.000000
vn 0.000000 -1.000000 0.000000
vn 0.000000 -1.000000 0.000000
vn 0.000000 -1.000000 -0.000001
vn 0.000000 -1.000000 -0.000001
vn 0.000000 -1.000000 -0.000001
vn 0.000000 -1.000000 -0.000001
vn 0.000000 -1.000000 0.000000
vn 0.000000 -1.000000 0.000000
vn 0.000000 -1.000000 0.000000
vn 0.000000 -1.000000 0.000000
vn 0.000000 -1.000000 0.000002
vn 0.000000 -1.000000 0.000002
vn 0.000000 -1.000000 0.000002
vn 0.000000 -1.000000 0.000002
vn 0.000000 -1.000000 -0.000001
vn 0.000000 -1.000000 -0.000001
vn 0.000000 -1.000000 -0.000001
vn 0.000000 -1.000000 -0.000001
vn 0.000000 -1.000000 0.000001
vn 0.000000 -1.000000 0.000001
vn 0.000000 -1.000000 0.000001
vn 0.000000 -1.000000 0.000001
vn 0.544190 0.377936 -0.749014
vn 0.544190 0.377936 -0.749014
vn 0.544190 0.377936 -0.749014
vn 0.000000 0.377936 -0.925832
vn 0.000000 0.377936 -0.925832
vn 0.000000 0.377936 -0.925832
vn -0.544190 0.377936 -0.749014
vn -0.544190 0.377936 -0.749014
vn -0.544190 0.377936 -0.749014
vn -0.880523 0.377935 -0.286086
vn -0.880523 0.377935 -0.286086
vn -0.880523 0.377935 -0.286086
vn -0.880523 0.377935 0.286086
vn -0.880523 0.377935 0.286086
vn -0.880523 0.377935 0.286086
vn -0.544190 0.377936 0.749014
vn -0.544190 0.377936 0.749014
vn -0.544190 0.377936 0.749014
vn 0.000000 0.377936 0.925832
vn 0.000000 0.377936 0.925832
vn 0.000000 0.377936 0.925832
vn 0.544190 0.377936 0.749014
vn 0.544190 0.377936 0.749014
vn 0.544190 0.377936 0.749014
vn 0.880523 0.377935 0.286086
vn 0.880523 0.377935 0.286086
vn 0.880523 0.377935 0.286086
vn 0.880523 0.377935 -0.286086
vn 0.880523 0.377935 -0.286086
vn 0.880523 0.377935 -0.286086
s 1
g pCylinder5
usemtl initialShadingGroup
f 1/7/1 2/8/2 8/15/3 7/14/4
s 2
f 2/8/5 3/9/6 9/16/7 8/15/8
s 3
f 3/9/9 4/10/10 10/17/11 9/16/12
s 4
f 4/10/13 5/11/14 11/18/15 10/17/16
s 5
f 5/11/17 6/12/18 12/19/19 11/18/20
s 6
f 6/12/21 1/13/22 7/20/23 12/19/24
s 7
f 2/2/25 1/1/26 13/27/27
f 3/3/28 2/2/25 13/27/27
f 4/4/29 3/3/28 13/27/27
f 5/5/30 4/4/29 13/27/27
f 6/6/31 5/5/30 13/27/27
f 1/1/26 6/6/31 13/27/27
s 8
f 14/29/32 15/30/33 16/28/34
f 15/30/33 17/31/35 16/28/34
f 17/31/35 18/32/36 16/28/34
f 18/32/36 19/33/37 16/28/34
f 19/33/37 20/34/38 16/28/34
f 20/34/38 14/29/32 16/28/34
s 1
f 7/25/4 8/24/3 15/30/39 14/29/40
s 2
f 8/24/8 9/23/7 17/31/41 15/30/42
s 3
f 9/23/12 10/22/11 18/32/43 17/31/44
s 4
f 10/22/16 11/21/15 19/33/45 18/32/46
s 5
f 11/21/20 12/26/19 20/34/47 19/33/48
s 6
f 12/26/24 7/25/23 14/29/49 20/34/50
s off
f 21/35/51 22/36/52 32/37/53 31/38/54
f 22/36/55 23/39/56 33/40/57 32/37/58
f 23/39/59 24/41/60 34/42/61 33/40/62
f 24/41/63 25/43/64 35/44/65 34/42/66
f 25/43/67 26/45/68 36/46/69 35/44/70
f 26/45/71 27/47/72 37/48/73 36/46/74
f 27/47/75 28/49/76 38/50/77 37/48/78
f 28/49/79 29/51/80 39/52/81 38/50/82
f 29/51/83 30/53/84 40/54/85 39/52/86
f 30/53/87 21/55/88 31/56/89 40/54/90
s 9
f 22/57/91 21/58/92 41/59/93
f 23/60/94 22/57/91 41/59/93
f 24/61/95 23/60/94 41/59/93
f 25/62/96 24/61/95 41/59/93
f 26/63/97 25/62/96 41/59/93
f 27/64/98 26/63/97 41/59/93
f 28/65/99 27/64/98 41/59/93
f 29/66/100 28/65/99 41/59/93
f 30/67/101 29/66/100 41/59/93
f 21/58/92 30/67/101 41/59/93
s off
f 31/68/102 32/69/103 43/70/104 42/71/105
f 32/69/106 33/72/107 44/73/108 43/70/109
f 33/72/110 34/74/111 45/75/112 44/73/113
f 34/74/114 35/76/115 46/77/116 45/75/117
f 35/76/118 36/78/119 47/79/120 46/77/121
f 36/78/122 37/80/123 48/81/124 47/79/125
f 37/80/126 38/82/127 49/83/128 48/81/129
f 38/82/130 39/84/131 50/85/132 49/83/133
f 39/84/134 40/86/135 51/87/136 50/85/137
f 40/86/138 31/68/139 42/71/140 51/87/141
f 42/71/142 43/70/143 53/88/144 52/89/145
f 43/70/146 44/73/147 54/90/148 53/88/149
f 44/73/150 45/75/151 55/91/152 54/90/153
f 45/75/154 46/77/155 56/92/156 55/91/157
f 46/77/158 47/79/159 57/93/160 56/92/161
f 47/79/162 48/81/163 58/94/164 57/93/165
f 48/81/166 49/83/167 59/95/168 58/94/169
f 49/83/170 50/85/171 60/96/172 59/95/173
f 50/85/174 51/87/175 61/97/176 60/96/177
f 51/87/178 42/71/179 52/89/180 61/97/181
f 52/89/182 53/88/183 63/98/184 62/99/185
f 53/88/186 54/90/187 64/100/188 63/98/189
f 54/90/190 55/91/191 65/101/192 64/100/193
f 55/91/194 56/92/195 66/102/196 65/101/197
f 56/92/198 57/93/199 67/103/200 66/102/201
f 57/93/202 58/94/203 68/104/204 67/103/205
f 58/94/206 59/95/207 69/105/208 68/104/209
f 59/95/210 60/96/211 70/106/212 69/105/213
f 60/96/214 61/97/215 71/107/216 70/106/217
f 61/97/218 52/89/219 62/99/220 71/107/221
f 62/99/222 63/98/223 72/108/224
f 63/98/225 64/100/226 72/108/227
f 64/100/228 65/101/229 72/108/230
f 65/101/231 66/102/232 72/108/233
f 66/102/234 67/103/235 72/108/236
f 67/103/237 68/104/238 72/108/239
f 68/104/240 69/105/241 72/108/242
f 69/105/243 70/106/244 72/108/245
f 70/106/246 71/107/247 72/108/248
f 71/107/249 62/99/250 72/108/251
